<svg xmlns="http://www.w3.org/2000/svg" xmlns:xlink="http://www.w3.org/1999/xlink" viewBox="0 0 172.6 30.15"><defs><style>.cls-1{fill:url(#linear-gradient);}.cls-2{fill:#fff;}.cls-3{fill:#003398;}</style><linearGradient id="linear-gradient" x1="26.68" y1="9.82" x2="0.69" y2="21.58" gradientUnits="userSpaceOnUse"><stop offset="0" stop-color="#07c3ff"/><stop offset="0.35" stop-color="#318bff"/><stop offset="0.43" stop-color="#2d7eff"/><stop offset="0.57" stop-color="#215cff"/><stop offset="0.75" stop-color="#0e26ff"/><stop offset="0.87" stop-color="blue"/></linearGradient></defs><g id="Layer_2" data-name="Layer 2"><g id="Layer_1-2" data-name="Layer 1"><circle class="cls-1" cx="15.07" cy="15.07" r="15.07"/><path class="cls-2" d="M23.88,16.2a.67.67,0,0,1,.06-.7l.88-1a2.68,2.68,0,0,0,.81-1.91,2.39,2.39,0,0,0-.69-1.85,2.51,2.51,0,0,0-1.82-.65H18.94a1.22,1.22,0,0,0-1.14.54c-.56,1.12-2.18,4.52-2.18,4.52l-2.19-4.58a1,1,0,0,0-.52-.48A1.94,1.94,0,0,0,12,10l-.42.13a1,1,0,0,0-.52.48L8.86,15.12,6.68,10.54a1.06,1.06,0,0,0-.52-.48A2.12,2.12,0,0,0,5.22,10a1.07,1.07,0,0,0-.61.37.92.92,0,0,0-.25.64v9.07H6.58V15.5l1.31,2.87a1.06,1.06,0,0,0,.42.42,1.13,1.13,0,0,0,1.16,0,1,1,0,0,0,.41-.43l1.24-2.81v4.52h2.24V15.55l1.29,2.82a1,1,0,0,0,.41.42,1.1,1.1,0,0,0,.58.16,1.09,1.09,0,0,0,.59-.16,1.06,1.06,0,0,0,.41-.43l1.24-2.82v4.53h2.25V12.14h3c.23,0,.34.09.34.26a.76.76,0,0,1-.21.51l-1.64,2a1.68,1.68,0,0,0,0,1.93l1.66,3.26H26Z"/><path class="cls-3" d="M38.12,12.43,37.33,20H35.6L37.33,9.84h2.56l2.39,7.77,2.41-7.77h2.56L48.69,20H45.84L45,12.62,43,20H40.45Zm22.12,2.72v.13a8.87,8.87,0,0,1-.13,1.23,8.11,8.11,0,0,1-.31,1.27A11.21,11.21,0,0,1,59.33,19a9.56,9.56,0,0,1-.62,1.19A9.21,9.21,0,0,1,58,21.3a6.37,6.37,0,0,1-.83.88l-1-.61a8.57,8.57,0,0,0,.45-.91c.13-.32.25-.67.36-1s.2-.73.28-1.11.14-.75.19-1.12.09-.74.12-1.1,0-.7,0-1,0-.54,0-.86,0-.66-.05-1a8,8,0,0,0-.17-1,3.11,3.11,0,0,0-.36-.85,1.84,1.84,0,0,0-.61-.6,1.74,1.74,0,0,0-.92-.23,1.93,1.93,0,0,0-.84.17,1.86,1.86,0,0,0-.59.44,2,2,0,0,0-.39.65,4.89,4.89,0,0,0-.23.77,5.92,5.92,0,0,0-.1.82c0,.28,0,.54,0,.79v2h3.05v1.16H53.23V20h-2.8V14.84a5.79,5.79,0,0,1,.35-2.06,4.88,4.88,0,0,1,1-1.66A4.65,4.65,0,0,1,53.33,10a4.94,4.94,0,0,1,2-.4,4.4,4.4,0,0,1,1.42.22,4.47,4.47,0,0,1,1.2.59,4.59,4.59,0,0,1,1,.9,4.93,4.93,0,0,1,.72,1.13,6.39,6.39,0,0,1,.43,1.3A6.49,6.49,0,0,1,60.24,15.15ZM64.86,20h-2.8V9.84h2.8v4.85a19.55,19.55,0,0,0,2.43-2.21,14.31,14.31,0,0,0,1.94-2.65h1.92a15.1,15.1,0,0,1-1.72,2.39,18.66,18.66,0,0,1-2.11,2.06L71.39,20H68.46L65.4,15.69l-.26.18-.28.17Zm15,0H72.52V9.84h7.31v1.3h-4.5v3.15H78.8v1.29H75.33v3.14h4.5Zm6.29-6.62L85.32,21H83.59l1.73-10.18h2.57l2.38,7.77,2.41-7.77h2.57L96.69,21H93.83L93,13.6,91,21H88.44Zm20.22-2.59-3.29,5.9V21h-2.81V16.87l-3.32-6.06h2.86L102,15.93l2.37-5.12ZM112.79,21H110V10.83h5a5.65,5.65,0,0,1,1.37.16,3.51,3.51,0,0,1,1.16.53,2.47,2.47,0,0,1,.8.92,2.75,2.75,0,0,1,.31,1.37,2.65,2.65,0,0,1-.27,1.18,3.46,3.46,0,0,1-.71,1,3.86,3.86,0,0,1-1,.72,3.94,3.94,0,0,1-1.19.38c.19.31.38.61.58.88s.4.54.61.79.4.46.61.67.39.39.58.56a11.19,11.19,0,0,0,1.28,1h-3.5a5.58,5.58,0,0,1-.8-1,8.08,8.08,0,0,1-.66-1.2,7.55,7.55,0,0,1-.5-1.64h-.86Zm3-7.19a2,2,0,0,0-.5-1.51,2.08,2.08,0,0,0-1.5-.48h-1v4.42h1a1.94,1.94,0,0,0,.91-.2,1.8,1.8,0,0,0,.62-.54,2.17,2.17,0,0,0,.35-.77A3.46,3.46,0,0,0,115.78,13.81Zm12,7.19h-7.31V10.83h7.31v1.3h-4.5v3.14h3.48v1.3h-3.48V19.7h4.5Zm10.08-3.11a3.7,3.7,0,0,1-.16,1.16,2.71,2.71,0,0,1-1.18,1.49,4.08,4.08,0,0,1-.9.39,6.34,6.34,0,0,1-1,.22,10,10,0,0,1-1.1.06,8.23,8.23,0,0,1-1.36-.11,5.11,5.11,0,0,1-1.17-.35,5.61,5.61,0,0,1-1.05-.61,7.54,7.54,0,0,1-1-.91l1.45-1.46a3.47,3.47,0,0,0,.54.9,4.24,4.24,0,0,0,.76.71,3.59,3.59,0,0,0,.86.46,2.21,2.21,0,0,0,.84.17,6.19,6.19,0,0,0,.88-.06,2.37,2.37,0,0,0,.71-.23,1.28,1.28,0,0,0,.48-.41,1.18,1.18,0,0,0,.17-.65,1,1,0,0,0-.13-.5,1.24,1.24,0,0,0-.35-.37,2.36,2.36,0,0,0-.5-.26,5.22,5.22,0,0,0-.56-.18l-.56-.13L133,17.1l-.87-.26c-.3-.09-.59-.2-.89-.32a7.07,7.07,0,0,1-.83-.4,3.41,3.41,0,0,1-.69-.55,2.61,2.61,0,0,1-.47-.73,2.33,2.33,0,0,1-.18-.95,3.92,3.92,0,0,1,.16-1.14,2.81,2.81,0,0,1,.45-.86,2.4,2.4,0,0,1,.69-.62,3.87,3.87,0,0,1,.87-.41,5.21,5.21,0,0,1,1-.21,7.92,7.92,0,0,1,1.1-.07,6.51,6.51,0,0,1,1.38.14,5.11,5.11,0,0,1,1.16.4,5.39,5.39,0,0,1,1,.63,6.34,6.34,0,0,1,.83.81L136.21,14a3.33,3.33,0,0,0-.47-.92,3.44,3.44,0,0,0-.67-.7,2.63,2.63,0,0,0-.77-.45,2.05,2.05,0,0,0-.78-.16,6.13,6.13,0,0,0-.89.06,2.58,2.58,0,0,0-.71.22,1.13,1.13,0,0,0-.62,1,.93.93,0,0,0,.13.52,1.1,1.1,0,0,0,.32.36,1.61,1.61,0,0,0,.45.24,4.68,4.68,0,0,0,.53.17,5.23,5.23,0,0,0,.54.12l.48.12.89.25c.31.09.62.2.92.32a7.57,7.57,0,0,1,.86.41,2.89,2.89,0,0,1,.72.56,2.36,2.36,0,0,1,.5.74A2.42,2.42,0,0,1,137.82,17.89Zm4.73-7.06a10.75,10.75,0,0,0-.33,1.18c-.1.41-.17.82-.24,1.22s-.1.81-.13,1.21,0,.77,0,1.12v.87q0,.5.06,1a7.71,7.71,0,0,0,.17,1,2.83,2.83,0,0,0,.36.85,1.84,1.84,0,0,0,.61.6,1.74,1.74,0,0,0,.92.23,1.93,1.93,0,0,0,.84-.17,1.75,1.75,0,0,0,.59-.45,2.34,2.34,0,0,0,.39-.65A4.6,4.6,0,0,0,146,18a5.6,5.6,0,0,0,.1-.81c0-.28,0-.54,0-.79V10.83h2.8V16a5.75,5.75,0,0,1-.35,2.06,5,5,0,0,1-1,1.66,4.42,4.42,0,0,1-1.55,1.1,4.92,4.92,0,0,1-2,.4,4.6,4.6,0,0,1-1.42-.21,4.71,4.71,0,0,1-1.21-.6,4.82,4.82,0,0,1-1-.89,5.22,5.22,0,0,1-.72-1.14,6.2,6.2,0,0,1-.43-1.3,5.77,5.77,0,0,1-.14-1.38v-.14a8,8,0,0,1,.12-1.17,10.56,10.56,0,0,1,.28-1.21,11,11,0,0,1,.44-1.21c.17-.39.36-.78.56-1.14Zm10.38,2.58L152.14,21h-1.73l1.73-10.17h2.57l2.38,7.76,2.41-7.76h2.56L163.51,21h-2.86l-.84-7.39-2,7.39h-2.56ZM172.6,21h-7.31V10.83h7.31v1.3h-4.51v3.14h3.48v1.3h-3.48V19.7h4.51Z"/></g></g></svg>